# Blender 4.3.2
# www.blender.org
mtllib hole_27.mtl
o Cube
v 80.000000 92.370911 -80.000000
v 0.559311 32.735264 -26.759661
v 80.000000 12.370918 -80.000000
v 80.000000 92.370911 80.000000
v 5.826750 32.735264 -26.240862
v 80.000000 12.370918 80.000000
v 10.891764 32.735264 -24.704407
v -80.000000 92.370911 -80.000000
v -80.000000 12.370918 -80.000000
v 15.559708 32.735264 -22.209339
v -80.000000 92.370911 80.000000
v -80.000000 12.370918 80.000000
v 19.651194 32.735264 -18.851542
v 23.008991 32.735264 -14.760056
v 25.504057 32.735264 -10.092112
v 27.040512 32.735264 -5.027098
v 27.559311 32.735264 0.240341
v 27.040512 32.735264 5.507780
v 25.504057 32.735264 10.572795
v 23.008991 32.735264 15.240738
v 19.651194 32.735264 19.332224
v 15.559708 32.735264 22.690020
v 10.891764 32.735264 25.185087
v 5.826750 32.735264 26.721542
v 0.559311 32.735264 27.240341
v -4.708127 32.735264 26.721542
v -9.773142 32.735264 25.185087
v -14.441086 32.735264 22.690020
v -18.532572 32.735264 19.332224
v -21.890369 32.735264 15.240738
v -24.385435 32.735264 10.572795
v -25.921890 32.735264 5.507780
v -26.440689 32.735264 0.240341
v -25.921890 32.735264 -5.027098
v -24.385435 32.735264 -10.092112
v -21.890369 32.735264 -14.760056
v -18.532572 32.735264 -18.851542
v -14.441086 32.735264 -22.209339
v -9.773142 32.735264 -24.704407
v -4.708127 32.735264 -26.240862
v -26.440689 92.370911 0.240341
v -25.921890 92.370911 -5.027098
v -25.921890 92.370911 5.507780
v -21.890369 92.370911 15.240738
v -21.890369 92.370911 -14.760056
v -24.385435 92.370911 10.572795
v -24.385435 92.370911 -10.092112
v -14.441086 92.370911 -22.209339
v -4.708127 92.370911 -26.240862
v -9.773142 92.370911 -24.704407
v 5.826750 92.370911 -26.240862
v 15.559708 92.370911 -22.209339
v 10.891764 92.370911 -24.704407
v 0.559311 92.370911 -26.759661
v -18.532572 92.370911 -18.851542
v -18.532572 92.370911 19.332224
v -9.773142 92.370911 25.185087
v -4.708127 92.370911 26.721542
v -14.441086 92.370911 22.690020
v 5.826750 92.370911 26.721542
v 0.559311 92.370911 27.240341
v 15.559708 92.370911 22.690020
v 10.891764 92.370911 25.185087
v 23.008991 92.370911 15.240738
v 23.008991 92.370911 -14.760056
v 27.559311 92.370911 0.240341
v 27.040512 92.370911 5.507780
v 27.040512 92.370911 -5.027098
v 25.504057 92.370911 -10.092112
v 19.651194 92.370911 19.332224
v 25.504057 92.370911 10.572795
v 19.651194 92.370911 -18.851542
vn -0.0000 1.0000 -0.0000
vn -0.0000 -0.0000 1.0000
vn -1.0000 -0.0000 -0.0000
vn -0.0000 -1.0000 -0.0000
vn 1.0000 -0.0000 -0.0000
vn -0.0000 -0.0000 -1.0000
vn -0.0980 -0.0000 0.9952
vn -0.2903 -0.0000 0.9569
vn -0.4714 -0.0000 0.8819
vn -0.6344 -0.0000 0.7730
vn -0.7730 -0.0000 0.6344
vn -0.8819 -0.0000 0.4714
vn -0.9569 -0.0000 0.2903
vn -0.9952 -0.0000 0.0980
vn -0.9952 -0.0000 -0.0980
vn -0.9569 -0.0000 -0.2903
vn -0.8819 -0.0000 -0.4714
vn -0.7730 -0.0000 -0.6344
vn -0.6344 -0.0000 -0.7730
vn -0.4714 -0.0000 -0.8819
vn -0.2903 -0.0000 -0.9569
vn -0.0980 -0.0000 -0.9952
vn 0.0980 -0.0000 -0.9952
vn 0.2903 -0.0000 -0.9569
vn 0.4714 -0.0000 -0.8819
vn 0.6344 -0.0000 -0.7730
vn 0.7730 -0.0000 -0.6344
vn 0.8819 -0.0000 -0.4714
vn 0.9569 -0.0000 -0.2903
vn 0.9952 -0.0000 -0.0980
vn 0.9952 -0.0000 0.0980
vn 0.9569 -0.0000 0.2903
vn 0.8819 -0.0000 0.4714
vn 0.7730 -0.0000 0.6344
vn 0.6344 -0.0000 0.7730
vn 0.4714 -0.0000 0.8819
vn 0.2903 -0.0000 0.9569
vn 0.0980 -0.0000 0.9952
vt 0.625000 0.500000
vt 0.706939 0.625376
vt 0.707749 0.633606
vt 0.875000 0.500000
vt 0.790503 0.633606
vt 0.791314 0.625376
vt 0.625000 0.750000
vt 0.375000 1.000000
vt 0.375000 0.750000
vt 0.625000 0.000000
vt 0.375000 0.250000
vt 0.375000 0.000000
vt 0.375000 0.500000
vt 0.125000 0.750000
vt 0.125000 0.500000
vt 0.625000 0.250000
vt 1.000000 0.500000
vt 0.968750 0.872723
vt 1.000000 0.872723
vt 0.968750 0.500000
vt 0.937500 0.872723
vt 0.937500 0.500000
vt 0.906250 0.872723
vt 0.906250 0.500000
vt 0.875000 0.872723
vt 0.843750 0.500000
vt 0.812500 0.500000
vt 0.843750 0.872723
vt 0.781250 0.500000
vt 0.812500 0.872723
vt 0.750000 0.500000
vt 0.781250 0.872723
vt 0.718750 0.500000
vt 0.750000 0.872723
vt 0.687500 0.500000
vt 0.718750 0.872723
vt 0.656250 0.500000
vt 0.687500 0.872723
vt 0.656250 0.872723
vt 0.593750 0.500000
vt 0.625000 0.872723
vt 0.562500 0.500000
vt 0.593750 0.872723
vt 0.531250 0.500000
vt 0.562500 0.872723
vt 0.500000 0.500000
vt 0.531250 0.872723
vt 0.468750 0.500000
vt 0.500000 0.872723
vt 0.437500 0.500000
vt 0.468750 0.872723
vt 0.406250 0.500000
vt 0.437500 0.872723
vt 0.406250 0.872723
vt 0.343750 0.872723
vt 0.375000 0.872723
vt 0.343750 0.500000
vt 0.312500 0.872723
vt 0.312500 0.500000
vt 0.281250 0.872723
vt 0.281250 0.500000
vt 0.250000 0.872723
vt 0.250000 0.500000
vt 0.218750 0.872723
vt 0.218750 0.500000
vt 0.187500 0.872723
vt 0.187500 0.500000
vt 0.156250 0.872723
vt 0.156250 0.500000
vt 0.125000 0.872723
vt 0.093750 0.872723
vt 0.093750 0.500000
vt 0.062500 0.872723
vt 0.062500 0.500000
vt 0.031250 0.872723
vt 0.031250 0.500000
vt 0.000000 0.872723
vt 0.580294 0.419706
vt 0.580294 0.080294
vt 0.919706 0.080294
vt 0.714049 0.648814
vt 0.719295 0.655207
vt 0.719295 0.595544
vt 0.714049 0.601937
vt 0.710150 0.609231
vt 0.710150 0.641520
vt 0.707749 0.617145
vt 0.725688 0.590298
vt 0.725688 0.660453
vt 0.732982 0.664352
vt 0.732982 0.586399
vt 0.875000 0.750000
vt 0.740896 0.666752
vt 0.740896 0.583999
vt 0.749126 0.583188
vt 0.749126 0.667563
vt 0.757356 0.666752
vt 0.757356 0.583999
vt 0.765271 0.586399
vt 0.765270 0.664352
vt 0.772564 0.660453
vt 0.772564 0.590298
vt 0.778957 0.595545
vt 0.778957 0.655207
vt 0.784204 0.648814
vt 0.784204 0.601937
vt 0.788102 0.609231
vt 0.788102 0.641520
vt 0.790503 0.617145
vt 0.625000 1.000000
vt 0.000000 0.500000
vt 0.949553 0.116663
vt 0.971731 0.158156
vt 0.985388 0.203178
vt 0.990000 0.250000
vt 0.985388 0.296822
vt 0.971731 0.341844
vt 0.949553 0.383337
vt 0.919706 0.419706
vt 0.883337 0.449553
vt 0.841844 0.471731
vt 0.796822 0.485388
vt 0.750000 0.490000
vt 0.703178 0.485388
vt 0.658156 0.471731
vt 0.616663 0.449553
vt 0.550447 0.383337
vt 0.528269 0.341844
vt 0.514612 0.296822
vt 0.510000 0.250000
vt 0.514612 0.203178
vt 0.528269 0.158156
vt 0.550447 0.116663
vt 0.616663 0.050447
vt 0.658156 0.028269
vt 0.703178 0.014612
vt 0.750000 0.010000
vt 0.796822 0.014612
vt 0.841844 0.028269
vt 0.883337 0.050447
s 0
usemtl Material
f 1/1/1 66/2/1 67/3/1
f 8/4/1 43/5/1 41/6/1
f 4/7/2 12/8/2 6/9/2
f 11/10/3 9/11/3 12/12/3
f 3/13/4 12/14/4 9/15/4
f 1/1/5 6/9/5 3/13/5
f 8/16/6 3/13/6 9/11/6
f 2/17/7 51/18/7 54/19/7
f 5/20/8 53/21/8 51/18/8
f 7/22/9 52/23/9 53/21/9
f 10/24/10 72/25/10 52/23/10
f 14/26/11 72/25/11 13/4/11
f 15/27/12 65/28/12 14/26/12
f 16/29/13 69/30/13 15/27/13
f 17/31/14 68/32/14 16/29/14
f 18/33/15 66/34/15 17/31/15
f 19/35/16 67/36/16 18/33/16
f 20/37/17 71/38/17 19/35/17
f 21/1/18 64/39/18 20/37/18
f 22/40/19 70/41/19 21/1/19
f 23/42/20 62/43/20 22/40/20
f 24/44/21 63/45/21 23/42/21
f 25/46/22 60/47/22 24/44/22
f 26/48/23 61/49/23 25/46/23
f 27/50/24 58/51/24 26/48/24
f 28/52/25 57/53/25 27/50/25
f 29/13/26 59/54/26 28/52/26
f 29/13/27 44/55/27 56/56/27
f 30/57/28 46/58/28 44/55/28
f 31/59/29 43/60/29 46/58/29
f 32/61/30 41/62/30 43/60/30
f 33/63/31 42/64/31 41/62/31
f 34/65/32 47/66/32 42/64/32
f 35/67/33 45/68/33 47/66/33
f 36/69/34 55/70/34 45/68/34
f 37/15/35 48/71/35 55/70/35
f 38/72/36 50/73/36 48/71/36
f 39/74/37 49/75/37 50/73/37
f 40/76/38 54/77/38 49/75/38
f 37/78/1 29/79/1 21/80/1
f 64/81/1 70/82/1 4/7/1
f 1/1/1 72/83/1 65/84/1
f 1/1/1 65/84/1 69/85/1
f 64/81/1 4/7/1 1/1/1
f 71/86/1 64/81/1 1/1/1
f 1/1/1 69/85/1 68/87/1
f 1/1/1 68/87/1 66/2/1
f 67/3/1 71/86/1 1/1/1
f 52/88/1 72/83/1 1/1/1
f 4/7/1 70/82/1 62/89/1
f 4/7/1 62/89/1 63/90/1
f 52/88/1 1/1/1 8/4/1
f 53/91/1 52/88/1 8/4/1
f 11/92/1 4/7/1 63/90/1
f 11/92/1 63/90/1 60/93/1
f 51/94/1 53/91/1 8/4/1
f 54/95/1 51/94/1 8/4/1
f 11/92/1 60/93/1 61/96/1
f 11/92/1 61/96/1 58/97/1
f 49/98/1 54/95/1 8/4/1
f 50/99/1 49/98/1 8/4/1
f 11/92/1 58/97/1 57/100/1
f 11/92/1 57/100/1 59/101/1
f 48/102/1 50/99/1 8/4/1
f 55/103/1 48/102/1 8/4/1
f 11/92/1 59/101/1 56/104/1
f 11/92/1 56/104/1 44/105/1
f 45/106/1 55/103/1 8/4/1
f 47/107/1 45/106/1 8/4/1
f 8/4/1 11/92/1 44/105/1
f 8/4/1 44/105/1 46/108/1
f 42/109/1 47/107/1 8/4/1
f 41/6/1 42/109/1 8/4/1
f 8/4/1 46/108/1 43/5/1
f 4/7/2 11/110/2 12/8/2
f 11/10/3 8/16/3 9/11/3
f 3/13/4 6/9/4 12/14/4
f 1/1/5 4/7/5 6/9/5
f 8/16/6 1/1/6 3/13/6
f 2/17/7 5/20/7 51/18/7
f 5/20/8 7/22/8 53/21/8
f 7/22/9 10/24/9 52/23/9
f 10/24/10 13/4/10 72/25/10
f 14/26/11 65/28/11 72/25/11
f 15/27/12 69/30/12 65/28/12
f 16/29/13 68/32/13 69/30/13
f 17/31/14 66/34/14 68/32/14
f 18/33/15 67/36/15 66/34/15
f 19/35/16 71/38/16 67/36/16
f 20/37/17 64/39/17 71/38/17
f 21/1/18 70/41/18 64/39/18
f 22/40/19 62/43/19 70/41/19
f 23/42/20 63/45/20 62/43/20
f 24/44/21 60/47/21 63/45/21
f 25/46/22 61/49/22 60/47/22
f 26/48/23 58/51/23 61/49/23
f 27/50/24 57/53/24 58/51/24
f 28/52/25 59/54/25 57/53/25
f 29/13/26 56/56/26 59/54/26
f 29/13/27 30/57/27 44/55/27
f 30/57/28 31/59/28 46/58/28
f 31/59/29 32/61/29 43/60/29
f 32/61/30 33/63/30 41/62/30
f 33/63/31 34/65/31 42/64/31
f 34/65/32 35/67/32 47/66/32
f 35/67/33 36/69/33 45/68/33
f 36/69/34 37/15/34 55/70/34
f 37/15/35 38/72/35 48/71/35
f 38/72/36 39/74/36 50/73/36
f 39/74/37 40/76/37 49/75/37
f 40/76/38 2/111/38 54/77/38
f 21/80/1 20/112/1 19/113/1
f 19/113/1 18/114/1 17/115/1
f 17/115/1 16/116/1 15/117/1
f 15/117/1 14/118/1 13/119/1
f 13/119/1 10/120/1 7/121/1
f 7/121/1 5/122/1 2/123/1
f 2/123/1 40/124/1 39/125/1
f 39/125/1 38/126/1 37/78/1
f 37/78/1 36/127/1 35/128/1
f 35/128/1 34/129/1 33/130/1
f 33/130/1 32/131/1 31/132/1
f 31/132/1 30/133/1 29/79/1
f 29/79/1 28/134/1 27/135/1
f 27/135/1 26/136/1 25/137/1
f 25/137/1 24/138/1 23/139/1
f 23/139/1 22/140/1 21/80/1
f 21/80/1 19/113/1 17/115/1
f 17/115/1 15/117/1 13/119/1
f 13/119/1 7/121/1 2/123/1
f 2/123/1 39/125/1 37/78/1
f 37/78/1 35/128/1 33/130/1
f 33/130/1 31/132/1 29/79/1
f 29/79/1 27/135/1 25/137/1
f 25/137/1 23/139/1 21/80/1
f 21/80/1 17/115/1 13/119/1
f 13/119/1 2/123/1 37/78/1
f 37/78/1 33/130/1 29/79/1
f 29/79/1 25/137/1 21/80/1
f 21/80/1 13/119/1 37/78/1
